<svg xmlns="http://www.w3.org/2000/svg" xmlns:xlink="http://www.w3.org/1999/xlink" width="253" height="98" viewBox="0 0 253 98">
  <defs>
    <filter id="Rectangle_9" x="0" y="0" width="253" height="98" filterUnits="userSpaceOnUse">
      <feOffset input="SourceAlpha"/>
      <feGaussianBlur stdDeviation="11" result="blur"/>
      <feFlood flood-color="#acacac" flood-opacity="0.161"/>
      <feComposite operator="in" in2="blur"/>
      <feComposite in="SourceGraphic"/>
    </filter>
  </defs>
  <g id="Groupe_2314" data-name="Groupe 2314" transform="translate(-137 -219)">
    <g transform="matrix(1, 0, 0, 1, 137, 219)" filter="url(#Rectangle_9)">
      <rect id="Rectangle_9-2" data-name="Rectangle 9" width="187" height="32" rx="5" transform="translate(33 33)" fill="#fff"/>
    </g>
    <text id="Dernières_minutes" data-name="Dernières minutes" transform="translate(209 274)" fill="#444141" font-size="16" font-family="OpenSans, Open Sans"><tspan x="0" y="0">Dernières minutes</tspan></text>
    <path id="fire" d="M7.461,21.483c-1.432-2.98-.669-4.687.431-6.295a10.034,10.034,0,0,0,1.516-3.505,4.118,4.118,0,0,1,.569,3.157,7.969,7.969,0,0,0,1.737-5.968,10.306,10.306,0,0,1,3.221,12.61C26.524,14.926,17.818,5.115,16.3,4.01c.506,1.105.6,2.976-.42,3.884C14.155,1.342,9.882,0,9.882,0,10.388,3.378,8.051,7.073,5.8,9.833a7.3,7.3,0,0,0-.871-3.566C4.767,8.715,2.9,10.709,2.39,13.162c-.686,3.321.514,5.752,5.072,8.321Z" transform="translate(177.789 256.517)" fill="#d7473b"/>
  </g>
</svg>
